<svg version="1.1" id="Layer_1" xmlns="http://www.w3.org/2000/svg" xmlns:xlink="http://www.w3.org/1999/xlink" x="0px" y="0px"
	 width="100%" viewBox="0 0 1024 544" enable-background="new 0 0 1024 544" xml:space="preserve">
<path fill="#000000" opacity="1.000000" stroke="none" 
	d="
M544.960938,325.019043 
	C545.552368,324.719452 546.246765,324.533478 546.720398,324.103973 
	C572.705566,300.536926 596.153748,274.983856 609.833984,241.993561 
	C613.993408,231.963120 616.513794,221.527145 616.929016,210.523697 
	C617.873352,185.498856 599.432922,172.579590 576.160645,175.708206 
	C568.080872,176.794418 560.148804,178.796448 552.523376,181.820847 
	C550.468567,182.635818 548.500244,183.141815 546.427795,181.533005 
	C538.790833,175.604507 530.854553,170.096680 522.585876,165.077621 
	C521.873596,164.645279 521.129456,164.265533 520.831787,164.100586 
	C521.378479,161.191315 523.224609,160.851334 524.631042,160.163101 
	C541.679932,151.820099 559.438477,145.931793 578.564087,144.984756 
	C615.599670,143.150925 642.157715,163.985916 646.828552,198.657440 
	C649.414246,217.850815 645.537048,236.376175 638.550354,254.380066 
	C629.365967,278.047119 615.063477,298.382050 598.393005,317.188019 
	C572.577881,346.310028 543.184143,371.224518 509.626068,391.013947 
	C491.631653,401.625397 472.831055,410.230713 451.850372,413.596771 
	C416.279938,419.303558 384.811218,396.572906 379.623260,361.065521 
	C376.734955,341.297333 381.122223,322.671814 388.092377,304.460754 
	C398.549561,277.138885 415.546906,253.940979 434.485474,232.033768 
	C446.606873,218.012268 459.980103,205.276245 474.288849,193.484894 
	C477.518768,190.823242 480.163788,190.634674 483.678833,192.656876 
	C489.679565,196.109039 496.016754,198.994415 501.508575,203.313538 
	C500.272308,206.305176 497.737457,207.079498 495.662262,208.304764 
	C482.486694,216.084244 467.893005,219.354568 452.946259,221.184875 
	C448.444458,221.736145 446.692505,223.617264 446.158752,228.013519 
	C444.792114,239.270111 443.362183,250.489655 445.166534,261.821289 
	C445.780121,265.674713 444.614746,268.785675 442.293549,271.981873 
	C429.811707,289.168976 418.697021,307.138275 413.055328,327.895050 
	C410.568085,337.046021 408.811371,346.222412 410.105591,355.938690 
	C412.603088,374.688477 427.906799,386.229156 446.652100,383.335632 
	C463.821991,380.685242 479.012054,373.250061 493.665955,364.569855 
	C512.201721,353.590179 529.410889,340.782440 544.878784,325.293457 
	C544.991760,324.997955 544.960938,325.019012 544.960938,325.019043 
z"/>
<path fill="#000000" opacity="1.000000" stroke="none" 
	d="
M391.779449,263.091064 
	C383.693359,244.931931 378.332550,226.517700 378.749023,206.794708 
	C379.461273,173.064728 401.311066,149.364044 434.746979,145.541306 
	C456.726593,143.028366 477.038879,148.753265 496.592804,157.748032 
	C528.032532,172.210236 554.519470,193.577805 578.717773,217.997711 
	C585.991882,225.338470 592.864075,233.027893 599.465759,240.979385 
	C601.669617,243.633865 602.083252,245.846039 600.404358,249.006516 
	C596.046692,257.209473 591.395935,265.186157 585.746460,272.891785 
	C582.005859,269.956543 580.663086,267.086151 581.143494,262.670868 
	C582.480103,250.388260 582.159241,238.098328 579.752930,225.901016 
	C579.202759,223.112061 577.703308,221.778305 575.143616,221.506500 
	C552.291443,219.079926 531.365051,211.816696 513.475708,196.560913 
	C509.637024,200.471680 506.484070,198.844620 502.749420,196.506271 
	C486.843628,186.547256 470.102783,178.503876 451.246918,175.782104 
	C433.110657,173.164215 412.867249,179.746063 409.653412,203.459534 
	C408.216888,214.059265 409.808716,224.567215 413.962952,234.253174 
	C416.993988,241.320312 416.259216,246.310364 411.175598,252.025146 
	C405.920929,257.932159 401.883667,264.922180 397.157593,271.661194 
	C393.694305,269.850128 393.722260,266.039642 391.779449,263.091064 
z"/>
<path fill="#000000" opacity="1.000000" stroke="none" 
	d="
M545.004150,324.984131 
	C536.369202,331.737244 527.434204,338.040253 517.689453,343.199005 
	C514.510803,344.881744 512.027832,344.840637 508.879700,343.254578 
	C477.387726,327.388733 458.075836,302.599091 452.992950,267.351227 
	C451.346924,255.936630 451.271851,244.486542 452.781128,233.024429 
	C453.199585,229.846451 454.836426,228.345123 457.875244,227.956421 
	C477.215332,225.482651 495.018311,219.029984 510.706512,207.266602 
	C513.081909,205.485489 514.620728,206.694809 516.422424,208.016449 
	C530.113586,218.059845 545.645386,223.718597 562.117432,227.118790 
	C562.931824,227.286896 563.746277,227.470642 564.569885,227.575394 
	C572.801331,228.622726 573.296753,228.581070 573.919556,236.825333 
	C576.005127,264.434479 571.964294,290.647400 554.713135,313.440369 
	C551.806519,317.280701 548.459778,320.787964 545.138672,324.734070 
	C544.960938,325.019012 544.991760,324.997955 545.004150,324.984131 
M551.481750,250.266922 
	C550.989807,248.258087 549.201355,247.942596 547.645447,247.540436 
	C535.981140,244.525635 524.758850,240.486374 514.781372,233.539612 
	C513.440063,232.605743 512.451721,232.839157 511.206177,233.714355 
	C501.525696,240.516632 490.617645,244.496475 479.212250,247.147827 
	C475.624176,247.981903 474.886414,250.018829 474.894257,253.232651 
	C474.958588,279.573395 485.165771,300.490692 507.224945,315.517517 
	C511.734314,318.589325 514.828064,318.365204 519.129822,315.441467 
	C541.929077,299.945404 551.531616,277.954193 551.481750,250.266922 
z"/>
<path fill="#000000" opacity="1.000000" stroke="none" 
	d="
M613.663757,329.326355 
	C607.513245,318.372833 609.702026,309.610779 618.426208,301.328094 
	C622.770203,297.203949 625.635559,291.522369 629.038391,286.730316 
	C630.916687,287.113495 631.319092,288.292877 631.797546,289.322784 
	C641.498291,310.204071 648.310547,331.628326 647.445435,355.178040 
	C646.244141,387.878418 619.919006,414.100128 587.155396,414.334259 
	C563.659424,414.502197 543.019165,405.688477 523.195557,394.240875 
	C522.381592,393.770782 521.758911,392.969452 520.792053,392.090546 
	C522.623108,389.302490 525.555542,388.287689 527.896240,386.583069 
	C533.146606,382.759430 538.569153,379.161346 543.684082,375.167267 
	C546.294312,373.129089 548.396790,373.066925 551.370911,374.430542 
	C561.683105,379.158478 572.263000,383.370056 583.796021,383.638763 
	C603.145142,384.089569 616.129883,371.317963 616.746155,351.893494 
	C616.987122,344.298218 615.496521,337.012939 613.663757,329.326355 
z"/>
<path fill="#000000" opacity="1.000000" stroke="none" 
	d="
M443.544556,333.452393 
	C438.108887,327.562469 432.966736,321.881897 427.710449,316.309021 
	C425.614014,314.086365 425.197571,311.939758 426.554413,309.105347 
	C430.574127,300.708221 435.222412,292.722443 441.240692,284.295441 
	C446.469604,290.799316 452.094421,296.176300 455.759735,302.660889 
	C466.397125,321.480194 481.264221,335.794861 499.583252,346.842712 
	C500.858429,347.611755 502.061493,348.505005 503.260468,349.391449 
	C503.491058,349.561920 503.545349,349.970886 503.896149,350.744080 
	C499.946320,354.617157 494.893616,357.201996 490.081604,359.930359 
	C477.276978,367.190552 481.727417,368.028351 470.079193,358.252045 
	C460.886932,350.537048 452.206848,342.259796 443.544556,333.452393 
z"/>
</svg>